<svg xmlns="http://www.w3.org/2000/svg" width="449" height="555"><path fill="none" fill-opacity="0" stroke="none" stroke-opacity="0" stroke-width=".3" d="M0 555h74c2.29-9.04 7.55-17.56 10.92-26.08s8.77-15.27 15.33-21.67c6.56-6.4 12.25-12.12 18.5-18.5 6.25-6.38 12.49-12 18.5-18.5 6-6.5 12.13-13.14 16-21 3.87-7.86 4.94-19.88 9.68-27.32 4.73-7.44 1.51-24.78 16.07-20.93 14.56 3.85 13.76-14.37 11.07-24.07-2.68-9.7-1.48-22.47-6-31-4.52-8.53-21.57-.09-30.14-2.86-8.58-2.76-19.52-4.48-21.9-15.1-2.39-10.61-1.55-22.29-5.01-31.99-3.45-9.71-5.59-17.68-10.79-26.21-5.2-8.53-11.97-14.97-11.23-25.77.74-10.8-2.16-25.26 1.92-35.08 4.09-9.81 4.05-22.36 1.3-32.14-2.75-9.79-7.42-20.62-6.22-30.78 1.2-10.16 2.84-20.04 9.25-27.75 6.41-7.71 13.02-10.47 19.5-17.5 6.49-7.03 12.17-12.21 19.99-17.01 7.83-4.79 14.19-9.75 22.49-14.51 8.3-4.76 17.79-6.98 27.44-9.56 9.65-2.58 20.69-5.14 31-6 10.31-.86 25.32-1.5 35.33.33 10.01 1.82 18.69 4.62 26.7 10.3 8 5.69 16.01 6.88 23.05 13.95 7.05 7.06 12.03 12.01 17.02 19.98 4.99 7.97 7.6 17.36 10.23 26.77 2.63 9.42 5.05 22.31 4 33-1.05 10.69-8.16 19.13-6.78 30.22 1.39 11.09-6.14 19.76-7.22 29.78-1.07 10.03-.35 22-7.25 29.75-6.9 7.74-8.57 14.18-16 21-7.44 6.82-12.34 13.1-14.07 22.93-1.73 9.82-.25 22.86 4.3 31.35 4.54 8.48 9.83 13.86 15.77 21.22 5.94 7.35 9.27 14.3 15 22 5.74 7.69 10.41 16.38 10.25 26.75-.16 10.38 3.67 20.99 5.98 31.02 2.3 10.04 6.53 18.47 8 29 1.46 10.53 3.67 21.06 4.95 32.05 1.28 10.99.11 24.65 1.07 35.93.96 11.28-2.82 22.85-3 34h90V0H0v555Z"/><path fill="none" fill-opacity="0" stroke="#412A27" stroke-width=".3" d="M74 555h285c.18-11.15 3.96-22.72 3-34-.96-11.28.21-24.94-1.07-35.93-1.28-10.99-3.49-21.52-4.95-32.05-1.47-10.53-5.7-18.96-8-29-2.31-10.03-6.14-20.64-5.98-31.02.16-10.37-4.51-19.06-10.25-26.75-5.73-7.7-9.06-14.65-15-22-5.94-7.36-11.23-12.74-15.77-21.22-4.55-8.49-6.03-21.53-4.3-31.35 1.73-9.83 6.63-16.11 14.07-22.93 7.43-6.82 9.1-13.26 16-21 6.9-7.75 6.18-19.72 7.25-29.75 1.08-10.02 8.61-18.69 7.22-29.78-1.38-11.09 5.73-19.53 6.78-30.22 1.05-10.69-1.37-23.58-4-33-2.63-9.41-5.24-18.8-10.23-26.77-4.99-7.97-9.97-12.92-17.02-19.98-7.04-7.07-15.05-8.26-23.05-13.95-8.01-5.68-16.69-8.48-26.7-10.3-10.01-1.83-25.02-1.19-35.33-.33-10.31.86-21.35 3.42-31 6-9.65 2.58-19.14 4.8-27.44 9.56-8.3 4.76-14.66 9.72-22.49 14.51-7.82 4.8-13.5 9.98-19.99 17.01-6.48 7.03-13.09 9.79-19.5 17.5-6.41 7.71-8.05 17.59-9.25 27.75-1.2 10.16 3.47 20.99 6.22 30.78 2.75 9.78 2.79 22.33-1.3 32.14-4.08 9.82-1.18 24.28-1.92 35.08-.74 10.8 6.03 17.24 11.23 25.77 5.2 8.53 7.34 16.5 10.79 26.21 3.46 9.7 2.62 21.38 5.01 31.99 2.38 10.62 13.32 12.34 21.9 15.1 8.57 2.77 25.62-5.67 30.14 2.86s3.32 21.3 6 31c2.69 9.7 3.49 27.92-11.07 24.07-14.56-3.85-11.34 13.49-16.07 20.93-4.74 7.44-5.81 19.46-9.68 27.32-3.87 7.86-10 14.5-16 21-6.01 6.5-12.25 12.12-18.5 18.5-6.25 6.38-11.94 12.1-18.5 18.5-6.56 6.4-11.96 13.15-15.33 21.67-3.37 8.52-8.63 17.04-10.92 26.08Z"/><path fill="none" fill-opacity="0" stroke="None" d="M0 555h74c2.29-9.04 7.55-17.56 10.92-26.08s8.77-15.27 15.33-21.67c6.56-6.4 12.25-12.12 18.5-18.5 6.25-6.38 12.49-12 18.5-18.5 6-6.5 12.13-13.14 16-21 3.87-7.86 4.94-19.88 9.68-27.32 4.73-7.44 1.51-24.78 16.07-20.93 14.56 3.85 13.76-14.37 11.07-24.07-2.68-9.7-1.48-22.47-6-31-4.52-8.53-21.57-.09-30.14-2.86-8.58-2.76-19.52-4.48-21.9-15.1-2.39-10.61-1.55-22.29-5.01-31.99-3.45-9.71-5.59-17.68-10.79-26.21-5.2-8.53-11.97-14.97-11.23-25.77.74-10.8-2.16-25.26 1.92-35.08 4.09-9.81 4.05-22.36 1.3-32.14-2.75-9.79-7.42-20.62-6.22-30.78 1.2-10.16 2.84-20.04 9.25-27.75 6.41-7.71 13.02-10.47 19.5-17.5 6.49-7.03 12.17-12.21 19.99-17.01 7.83-4.79 14.19-9.75 22.49-14.51 8.3-4.76 17.79-6.98 27.44-9.56 9.65-2.58 20.69-5.14 31-6 10.31-.86 25.32-1.5 35.33.33 10.01 1.82 18.69 4.62 26.7 10.3 8 5.69 16.01 6.88 23.05 13.95 7.05 7.06 12.03 12.01 17.02 19.98 4.99 7.97 7.6 17.36 10.23 26.77 2.63 9.42 5.05 22.31 4 33-1.05 10.69-8.16 19.13-6.78 30.22 1.39 11.09-6.14 19.76-7.22 29.78-1.07 10.03-.35 22-7.25 29.75-6.9 7.74-8.57 14.18-16 21-7.44 6.82-12.34 13.1-14.07 22.93-1.73 9.82-.25 22.86 4.3 31.35 4.54 8.48 9.83 13.86 15.77 21.22 5.94 7.35 9.27 14.3 15 22 5.74 7.69 10.41 16.38 10.25 26.75-.16 10.38 3.67 20.99 5.98 31.02 2.3 10.04 6.53 18.47 8 29 1.46 10.53 3.67 21.06 4.95 32.05 1.28 10.99.11 24.65 1.07 35.93.96 11.28-2.82 22.85-3 34h90V0H0v555Z"/><path fill="#412A27" stroke="None" d="M74 555h285c.18-11.15 3.96-22.72 3-34-.96-11.28.21-24.94-1.07-35.93-1.28-10.99-3.49-21.52-4.95-32.05-1.47-10.53-5.7-18.96-8-29-2.31-10.03-6.14-20.64-5.98-31.02.16-10.37-4.51-19.06-10.25-26.75-5.73-7.7-9.06-14.65-15-22-5.94-7.36-11.23-12.74-15.77-21.22-4.55-8.49-6.03-21.53-4.3-31.35 1.73-9.83 6.63-16.11 14.07-22.93 7.43-6.82 9.1-13.26 16-21 6.9-7.75 6.18-19.72 7.25-29.75 1.08-10.02 8.61-18.69 7.22-29.78-1.38-11.09 5.73-19.53 6.78-30.22 1.05-10.69-1.37-23.58-4-33-2.63-9.41-5.24-18.8-10.23-26.77-4.99-7.97-9.97-12.92-17.02-19.98-7.04-7.07-15.05-8.26-23.05-13.95-8.01-5.68-16.69-8.48-26.7-10.3-10.01-1.83-25.02-1.19-35.33-.33-10.31.86-21.35 3.42-31 6-9.65 2.58-19.14 4.8-27.44 9.56-8.3 4.76-14.66 9.72-22.49 14.51-7.82 4.8-13.5 9.98-19.99 17.01-6.48 7.03-13.09 9.79-19.5 17.5-6.41 7.71-8.05 17.59-9.25 27.75-1.2 10.16 3.47 20.99 6.22 30.78 2.75 9.78 2.79 22.33-1.3 32.14-4.08 9.82-1.18 24.28-1.92 35.08-.74 10.8 6.03 17.24 11.23 25.77 5.2 8.53 7.34 16.5 10.79 26.21 3.46 9.7 2.62 21.38 5.01 31.99 2.38 10.62 13.32 12.34 21.9 15.1 8.57 2.77 25.62-5.67 30.14 2.86s3.32 21.3 6 31c2.69 9.7 3.49 27.92-11.07 24.07-14.56-3.85-11.34 13.49-16.07 20.93-4.74 7.44-5.81 19.46-9.68 27.32-3.87 7.86-10 14.5-16 21-6.01 6.5-12.25 12.12-18.5 18.5-6.25 6.38-11.94 12.1-18.5 18.5-6.56 6.4-11.96 13.15-15.33 21.67-3.37 8.52-8.63 17.04-10.92 26.08Z"/></svg>