<?xml version="1.0" standalone="no"?>
<!DOCTYPE svg PUBLIC "-//W3C//DTD SVG 20010904//EN"
 "http://www.w3.org/TR/2001/REC-SVG-20010904/DTD/svg10.dtd">
<svg version="1.0" xmlns="http://www.w3.org/2000/svg"
 width="1536.000000pt" height="1536.000000pt" viewBox="0 0 1536.000000 1536.000000"
 preserveAspectRatio="xMidYMid meet">
<metadata>
Created by potrace 1.14, written by Peter Selinger 2001-2017
</metadata>
<g transform="translate(0.000000,1536.000000) scale(0.100000,-0.100000)"
fill="#000000" stroke="none">
<path d="M7344 15289 c-2 -4 10 -5 26 -4 17 1 30 -1 30 -4 0 -4 -26 -8 -57 -8
-114 -1 -211 -8 -207 -15 2 -3 17 -4 31 -2 15 3 24 2 20 -2 -7 -7 -115 -15
-227 -16 -43 0 -58 -3 -45 -9 28 -11 18 -13 -92 -20 -24 -1 -43 -6 -43 -11 0
-5 4 -7 9 -3 5 3 12 2 15 -3 2 -4 -5 -8 -17 -9 -60 -2 -95 -8 -91 -15 3 -5 11
-5 17 -2 7 4 8 3 4 -2 -10 -10 -14 -11 -57 -13 -20 -1 -30 -6 -30 -17 0 -10
-6 -14 -15 -11 -8 4 -17 2 -20 -4 -4 -5 -10 -7 -15 -4 -4 3 -10 -2 -14 -10 -3
-8 -17 -15 -31 -15 -16 0 -25 -6 -25 -15 0 -10 -10 -15 -29 -15 -16 0 -31 -6
-35 -15 -3 -8 -17 -15 -31 -15 -16 0 -25 -6 -25 -16 0 -10 -6 -14 -15 -10 -9
3 -15 0 -15 -9 0 -7 -5 -17 -12 -21 -8 -5 -9 -1 -5 12 7 18 6 18 -7 2 -7 -10
-19 -18 -25 -18 -7 0 -10 -4 -6 -9 7 -12 -7 -21 -38 -23 -16 -1 -23 -7 -20
-15 5 -12 -7 -17 -23 -10 -4 1 -11 -8 -15 -21 -5 -13 -13 -20 -19 -17 -5 3
-10 -1 -10 -9 0 -9 -7 -16 -15 -16 -8 0 -15 -7 -15 -15 0 -14 -17 -20 -50 -15
-10 1 -9 -3 5 -14 20 -15 20 -15 -5 -17 -14 -1 -28 -1 -31 -1 -3 1 -6 -6 -7
-14 -1 -8 -3 -20 -4 -28 -1 -8 -7 -12 -15 -9 -12 5 -18 -8 -14 -29 2 -16 -18
-7 -22 10 -3 9 -5 2 -6 -15 -1 -22 -6 -33 -16 -33 -8 0 -15 -7 -15 -15 0 -8
-7 -15 -15 -15 -9 0 -15 -9 -15 -25 0 -14 -7 -28 -15 -31 -8 -4 -15 -13 -15
-21 0 -9 -6 -13 -15 -9 -10 3 -15 -1 -15 -13 0 -10 -7 -18 -15 -18 -8 0 -15 5
-14 11 4 33 -2 48 -16 42 -12 -4 -15 3 -15 29 0 35 -14 55 -23 33 -3 -7 -6 -3
-6 10 -1 14 -7 22 -18 22 -13 0 -15 2 -5 8 9 6 5 12 -13 20 -14 7 -23 17 -20
22 3 6 -5 10 -19 10 -27 0 -35 15 -13 23 6 3 -14 5 -46 5 -33 0 -55 -3 -52 -9
4 -5 2 -9 -4 -9 -5 0 -12 6 -14 13 -3 7 -6 5 -6 -5 -1 -11 -9 -18 -21 -18 -13
0 -18 -5 -14 -15 4 -9 0 -15 -10 -15 -9 0 -16 -7 -16 -15 0 -8 -7 -15 -16 -15
-10 0 -14 -6 -11 -14 3 -8 -2 -16 -14 -19 -13 -4 -19 -14 -19 -36 0 -25 -3
-29 -17 -24 -16 6 -17 5 -3 -12 9 -11 10 -16 3 -11 -9 5 -13 0 -14 -13 -2 -34
-4 -39 -13 -48 -5 -4 -6 -3 -2 4 3 6 2 15 -4 18 -6 4 -10 3 -9 -2 1 -4 1 -25
0 -45 -1 -27 -6 -38 -16 -38 -11 0 -15 -12 -15 -44 0 -43 -14 -70 -22 -44 -3
7 -6 -10 -7 -37 -5 -92 -8 -110 -19 -107 -8 1 -12 -15 -12 -47 0 -30 -5 -51
-12 -53 -12 -4 -14 -15 -19 -115 -1 -29 -7 -58 -12 -65 -6 -9 -7 -8 -3 4 3 10
2 19 -2 22 -4 2 -8 -32 -10 -76 -2 -84 -7 -102 -23 -93 -5 4 -9 -1 -9 -10 0
-9 4 -14 9 -10 5 3 13 0 17 -6 5 -8 3 -9 -5 -5 -8 5 -14 0 -18 -13 -3 -12 -12
-21 -19 -21 -8 0 -14 -10 -14 -24 0 -14 -5 -28 -12 -32 -6 -4 -8 -3 -4 4 3 6
2 14 -4 17 -6 4 -10 3 -9 -2 1 -4 1 -21 0 -38 -1 -23 -3 -27 -11 -15 -8 13
-11 11 -16 -7 -4 -13 -13 -23 -20 -23 -8 0 -13 -3 -12 -7 4 -16 -14 -53 -23
-48 -8 6 -13 -8 -10 -27 0 -5 -6 -8 -14 -8 -8 0 -15 -7 -15 -15 0 -8 -7 -15
-15 -15 -8 0 -15 -7 -15 -15 0 -8 -7 -15 -15 -15 -8 0 -15 -4 -15 -10 0 -5 8
-7 18 -4 10 3 9 0 -5 -8 -12 -7 -22 -17 -22 -23 0 -5 -10 -11 -21 -13 -12 -2
-24 -10 -27 -18 -3 -8 -19 -14 -37 -14 -29 -1 -30 -2 -12 -15 18 -14 18 -14
-5 -13 -58 2 -81 -2 -76 -15 3 -8 0 -14 -6 -14 -7 -1 -36 -2 -64 -4 -52 -2
-71 -14 -35 -21 9 -2 -14 -5 -53 -6 -38 -2 -91 -4 -117 -4 -26 -1 -44 -6 -42
-10 3 -5 11 -5 17 -2 7 4 9 3 4 -1 -13 -15 -49 -17 -41 -3 6 10 4 11 -7 1 -7
-7 -32 -13 -55 -13 -24 0 -46 -4 -49 -10 -3 -5 0 -7 8 -4 8 3 17 2 20 -3 3 -4
-20 -9 -51 -11 -38 -2 -59 -8 -69 -20 -12 -16 -13 -16 -7 1 3 9 1 17 -5 17 -6
0 -11 -7 -11 -15 0 -11 -12 -15 -44 -15 -31 0 -46 -5 -50 -16 -4 -11 -14 -15
-31 -12 -14 3 -25 1 -25 -3 0 -5 -3 -8 -7 -8 -5 1 -15 1 -23 0 -13 -1 -13 -2
0 -11 11 -7 5 -10 -22 -10 -27 0 -38 -4 -38 -15 0 -8 -5 -15 -11 -15 -6 0 -8
8 -5 18 6 16 5 16 -7 0 -8 -10 -25 -19 -37 -21 -13 -2 -26 -9 -28 -15 -2 -7
-10 -12 -18 -12 -8 0 -14 -7 -14 -15 0 -8 -9 -15 -20 -15 -13 0 -18 -5 -14
-15 4 -9 0 -15 -10 -15 -9 0 -16 -7 -16 -15 0 -8 -6 -15 -12 -15 -7 0 -14 -15
-16 -33 -1 -17 -3 -39 -4 -47 -3 -37 3 -70 13 -70 5 0 7 5 3 12 -4 7 -3 8 4 4
7 -4 12 -18 12 -31 0 -18 4 -23 15 -19 10 4 15 0 15 -14 0 -15 6 -19 26 -16
22 2 23 0 12 -14 -11 -13 -11 -15 4 -9 12 4 21 0 28 -13 8 -14 21 -20 45 -20
24 0 35 -5 35 -15 0 -10 11 -15 35 -15 29 0 33 -3 28 -17 -6 -16 -5 -17 12 -3
11 9 16 10 11 3 -5 -10 3 -13 29 -13 21 0 34 -4 30 -10 -6 -10 17 -17 83 -23
23 -3 46 -8 50 -12 4 -5 -1 -5 -11 -2 -12 4 -16 3 -11 -4 3 -6 14 -9 24 -6 11
3 29 -2 41 -11 12 -8 19 -10 15 -4 -4 7 5 10 28 9 19 -1 32 -5 30 -9 -3 -4
-13 -5 -24 -3 -12 2 -19 1 -16 -3 2 -4 37 -9 78 -10 44 -2 77 -8 83 -15 6 -7
33 -14 60 -16 65 -3 82 -8 82 -26 0 -21 -15 -19 -19 3 -2 9 -5 -53 -6 -138 -2
-85 -4 -214 -5 -286 -1 -89 -5 -130 -13 -127 -12 4 -13 -51 -2 -63 5 -4 8 -12
8 -18 0 -6 -5 -4 -10 4 -7 10 -10 -36 -11 -140 -1 -85 -2 -174 -2 -197 -1 -23
-4 -40 -8 -37 -4 2 -6 15 -4 29 1 14 -1 27 -4 30 -4 2 -8 -37 -8 -88 -2 -311
-8 -463 -19 -449 -9 12 -12 -32 -14 -179 -1 -107 -3 -204 -3 -217 -1 -12 -6
-21 -12 -18 -7 2 -12 -2 -12 -9 0 -7 5 -11 11 -9 7 3 11 -11 11 -36 1 -22 -3
-40 -7 -40 -5 0 -6 11 -4 25 3 13 2 27 -2 29 -4 2 -8 -12 -9 -32 -2 -25 3 -42
15 -51 12 -10 13 -12 2 -9 -16 6 -19 -50 -23 -360 -2 -86 -5 -115 -16 -122
-12 -7 -12 -11 -2 -23 8 -10 9 -17 1 -22 -6 -4 -10 -67 -10 -171 0 -130 -3
-164 -12 -158 -10 6 -10 5 -1 -7 14 -17 13 -100 0 -92 -4 2 -5 8 -2 13 3 5 2
11 -3 14 -4 2 -8 -8 -7 -24 0 -15 3 -26 6 -24 4 2 9 -3 12 -11 4 -9 1 -12 -9
-8 -20 7 -18 -7 4 -23 15 -12 15 -13 0 -8 -12 4 -16 1 -13 -13 1 -10 8 -17 15
-15 6 1 9 -2 5 -8 -3 -6 -10 -8 -14 -6 -7 5 -12 -108 -15 -376 -1 -108 -4
-134 -13 -126 -10 8 -13 5 -13 -12 0 -13 8 -29 18 -36 16 -13 16 -14 0 -8 -10
3 -18 1 -18 -5 0 -6 6 -11 13 -11 9 0 9 -2 0 -8 -8 -5 -12 -63 -14 -197 -1
-123 -5 -192 -12 -197 -11 -7 -13 -36 -17 -358 -1 -110 -6 -177 -13 -182 -6
-3 -12 -17 -14 -30 -2 -17 -1 -19 6 -8 5 8 7 18 5 22 -3 4 -1 8 4 8 5 0 9 -22
9 -49 0 -32 -4 -48 -11 -45 -6 2 -12 -9 -13 -26 -1 -17 2 -28 7 -25 5 3 12 0
16 -6 4 -7 3 -9 -4 -5 -6 3 -13 2 -16 -3 -3 -5 1 -11 9 -15 8 -3 14 -13 14
-23 -1 -17 -2 -17 -6 0 -9 35 -20 15 -21 -40 0 -32 5 -64 11 -72 9 -12 9 -13
0 -7 -10 6 -13 -22 -14 -126 -1 -73 0 -150 1 -172 1 -25 -2 -36 -9 -32 -6 4
-11 2 -11 -3 0 -6 4 -11 10 -11 5 0 9 -11 8 -24 -1 -14 -6 -22 -10 -20 -5 3
-6 9 -3 14 3 5 2 11 -2 13 -5 3 -8 -28 -8 -69 -1 -49 3 -73 10 -70 6 2 11 -7
11 -19 0 -13 -4 -21 -8 -19 -5 3 -6 10 -3 15 4 5 1 9 -4 9 -17 0 -13 -28 7
-40 12 -9 13 -10 1 -7 -16 5 -16 14 -22 -386 -1 -60 -6 -96 -12 -93 -6 2 -10
-29 -11 -80 -1 -46 3 -84 7 -84 5 0 9 -5 9 -11 0 -5 -4 -7 -10 -4 -7 4 -10
-77 -10 -236 0 -218 -2 -243 -17 -255 -17 -13 -17 -14 0 -8 9 3 17 1 17 -5 0
-6 -4 -11 -10 -11 -5 0 -10 -8 -10 -17 0 -15 2 -15 9 -4 6 10 9 2 9 -23 0 -20
-4 -36 -9 -36 -4 0 -6 6 -3 14 3 8 2 16 -3 19 -4 3 -8 -61 -8 -141 0 -117 3
-146 13 -144 8 1 11 -2 7 -8 -3 -6 -10 -8 -15 -5 -8 5 -9 -37 -12 -323 -1 -80
-3 -92 -17 -87 -14 4 -14 4 -1 -7 12 -10 15 -36 16 -110 0 -53 -3 -95 -6 -93
-3 2 -5 29 -5 59 1 31 -1 53 -4 50 -11 -11 -8 -209 3 -223 8 -11 8 -13 -1 -7
-7 4 -13 3 -13 -3 0 -5 6 -12 13 -14 8 -4 9 -6 0 -6 -9 -1 -12 -61 -13 -229
-1 -125 -2 -240 -1 -256 1 -15 -4 -35 -11 -44 -11 -13 -11 -14 2 -7 13 8 13 7
1 -8 -9 -11 -10 -17 -2 -17 6 0 11 -12 11 -26 0 -20 -3 -24 -13 -16 -9 8 -12
4 -12 -18 -1 -16 4 -26 10 -24 7 3 11 -10 11 -36 0 -22 -4 -40 -8 -40 -5 0 -6
11 -4 25 3 13 2 27 -2 29 -4 2 -8 -56 -8 -130 -1 -73 2 -131 6 -129 5 3 12 1
15 -5 4 -6 1 -9 -6 -8 -16 4 -17 -2 -19 -240 -2 -137 -6 -190 -13 -183 -14 14
-37 14 -37 1 0 -5 7 -7 15 -4 8 4 15 2 15 -4 0 -5 -8 -9 -17 -9 -96 0 -143 -4
-138 -13 3 -5 1 -11 -4 -11 -6 -1 -15 -3 -21 -4 -5 -1 -29 -3 -52 -4 -31 -2
-38 -4 -24 -10 18 -7 18 -8 2 -14 -10 -4 -26 -7 -37 -7 -11 0 -19 -7 -19 -16
0 -10 -6 -14 -14 -11 -14 5 -55 -30 -55 -46 1 -5 -3 -12 -7 -15 -4 -4 -4 -2 0
5 3 6 2 14 -4 18 -5 3 -10 -3 -10 -14 0 -14 -5 -19 -15 -15 -14 6 -20 -11 -16
-38 2 -13 -17 -9 -22 5 -3 6 -6 2 -6 -11 -1 -12 -6 -21 -13 -20 -12 3 -14 -2
-17 -37 0 -8 -6 -14 -13 -13 -11 3 -13 -1 -17 -33 0 -6 -9 -8 -18 -5 -15 5
-15 4 1 -9 17 -13 15 -19 -5 -17 -6 1 -9 -23 -10 -70 0 -10 -5 -18 -10 -18 -6
0 -8 4 -4 9 3 5 1 12 -3 15 -8 5 -16 -102 -15 -196 1 -30 -2 -36 -15 -31 -15
5 -15 4 0 -8 11 -9 18 -32 20 -67 2 -37 7 -51 16 -47 8 3 12 -9 13 -38 1 -23
1 -46 0 -50 -1 -5 3 -6 9 -2 6 3 7 12 4 18 -4 7 -3 9 1 4 5 -4 11 -18 13 -30
2 -12 5 -27 6 -34 1 -7 6 -16 11 -20 4 -4 5 -2 1 5 -4 6 -2 12 3 12 6 0 11
-11 11 -25 0 -15 5 -24 13 -23 6 2 11 -3 9 -10 -1 -8 7 -16 18 -19 11 -3 20
-11 20 -18 0 -7 7 -16 16 -19 8 -3 12 -10 9 -16 -3 -5 3 -10 14 -10 12 0 21
-7 21 -15 0 -8 12 -18 26 -21 19 -5 22 -9 12 -15 -9 -6 -2 -9 19 -9 25 0 31
-4 27 -15 -5 -11 1 -15 22 -16 16 -1 33 -1 38 0 5 1 3 -6 -5 -15 -13 -16 -12
-16 10 -5 15 8 21 9 17 2 -5 -7 4 -11 24 -11 22 0 31 -4 27 -13 -3 -9 14 -13
67 -15 131 -3 132 -4 133 -24 1 -11 -3 -16 -10 -12 -8 5 -8 3 1 -7 6 -7 12
-35 12 -61 0 -27 5 -48 11 -48 6 0 7 -5 2 -12 -13 -21 -11 -57 4 -62 7 -3 13
-20 13 -37 0 -18 7 -37 15 -43 8 -6 15 -31 16 -58 2 -26 7 -44 12 -41 4 3 6
12 3 20 -3 8 -2 12 3 9 5 -3 9 -25 9 -48 1 -26 7 -47 16 -54 9 -6 16 -23 16
-38 0 -14 6 -26 13 -26 7 0 13 -16 15 -38 1 -20 9 -42 18 -49 8 -6 15 -14 15
-17 -4 -32 1 -46 17 -46 14 0 15 -2 2 -10 -10 -6 -11 -10 -2 -10 6 0 12 -9 12
-20 0 -11 6 -19 12 -17 8 1 14 -11 16 -30 2 -21 9 -33 18 -33 12 0 19 -26 15
-52 0 -5 2 -7 7 -7 22 4 31 -3 25 -18 -4 -11 -3 -14 6 -9 8 5 14 1 18 -13 3
-12 12 -21 19 -21 8 0 14 -9 14 -20 0 -14 5 -18 18 -14 14 5 14 3 -3 -12 -13
-11 -15 -15 -5 -11 9 2 25 -2 35 -10 17 -13 17 -15 3 -10 -10 4 -18 2 -18 -3
0 -6 7 -10 15 -10 8 0 15 -7 15 -15 0 -8 7 -15 17 -15 9 0 13 -3 10 -7 -10 -9
14 -34 26 -26 6 4 8 0 4 -10 -4 -12 -1 -17 10 -17 13 0 14 -2 2 -17 -12 -15
-12 -16 4 -10 13 5 17 1 17 -18 0 -18 4 -23 15 -19 10 4 15 0 15 -16 0 -11 4
-19 10 -15 5 3 16 -7 24 -23 8 -16 25 -32 37 -35 11 -3 18 -10 14 -16 -3 -6
-1 -11 5 -11 7 0 10 -7 6 -15 -3 -8 -2 -14 2 -14 21 4 42 -2 42 -12 0 -5 -6
-7 -12 -3 -8 4 -10 3 -5 -2 5 -5 14 -9 20 -9 7 -1 11 -7 9 -15 -3 -11 0 -11
14 1 16 12 17 12 11 -3 -5 -14 -1 -18 14 -18 15 0 19 -5 15 -15 -4 -10 1 -15
14 -15 11 0 20 -7 20 -15 0 -8 7 -15 15 -15 8 0 15 -7 15 -15 0 -8 5 -15 11
-15 5 0 7 5 4 10 -3 6 -1 10 4 10 10 0 16 -21 12 -42 0 -5 2 -7 7 -7 27 5 52
-3 52 -16 0 -14 17 -20 48 -16 6 1 12 -3 12 -9 0 -6 -4 -9 -9 -5 -5 3 -12 2
-15 -3 -2 -4 9 -9 26 -10 17 -1 38 -7 47 -13 14 -9 14 -10 -1 -5 -10 3 -18 1
-18 -4 0 -5 15 -10 33 -12 20 -2 31 -8 29 -16 -1 -7 3 -12 10 -11 31 4 48 -2
48 -16 0 -9 6 -15 13 -14 6 1 23 1 36 0 18 -1 21 -4 13 -14 -9 -10 -5 -13 16
-15 51 -5 64 -8 72 -21 4 -8 19 -14 33 -13 15 0 25 -5 24 -10 -2 -10 12 -15
66 -21 15 -2 30 -7 35 -12 4 -5 2 -6 -3 -2 -6 3 -17 2 -25 -4 -11 -6 -5 -9 22
-9 44 0 70 -9 62 -21 -3 -5 10 -9 28 -9 18 0 40 -5 48 -11 13 -9 12 -10 -2 -5
-10 3 -19 2 -22 -2 -3 -5 12 -9 32 -10 20 -2 43 -8 51 -15 12 -9 13 -9 7 1 -5
8 0 12 13 12 12 0 21 -5 21 -11 0 -5 -5 -7 -12 -3 -7 4 -8 3 -4 -4 4 -7 14
-12 22 -12 8 0 13 4 9 9 -3 5 -1 13 5 16 6 4 9 1 8 -6 -3 -14 17 -17 129 -22
40 -1 76 -6 80 -10 4 -5 0 -5 -10 -1 -9 3 -17 1 -17 -4 0 -7 32 -11 83 -11 45
-1 91 -3 102 -5 11 -3 22 -5 25 -5 3 -1 -1 -5 -8 -10 -16 -10 -19 -10 493 -10
633 -1 729 1 749 11 12 7 16 7 12 0 -3 -6 26 -10 79 -10 59 -1 85 3 85 11 0 9
2 9 8 1 10 -15 81 -14 76 1 -3 6 2 12 10 12 8 0 12 -5 10 -12 -3 -8 20 -11 80
-11 46 1 82 4 79 9 -2 4 -8 5 -13 2 -5 -3 -11 -2 -14 3 -6 10 60 9 70 -1 5 -4
1 -5 -9 -1 -9 3 -17 2 -17 -3 0 -10 115 -12 124 -2 3 3 -14 5 -39 4 -25 -1
-45 1 -45 5 0 4 32 6 70 6 39 0 70 -5 70 -9 0 -5 -7 -7 -15 -4 -8 4 -17 3 -19
-2 -3 -4 8 -7 24 -7 16 0 26 4 24 11 -3 6 8 11 26 10 17 0 28 -5 26 -11 -2 -6
2 -11 9 -11 7 0 11 6 8 14 -7 19 7 16 24 -5 13 -15 14 -15 9 0 -4 13 1 16 24
16 18 -1 27 -5 23 -12 -3 -6 0 -5 8 2 16 14 49 16 49 2 0 -5 5 -10 11 -10 5 0
7 5 4 10 -4 7 51 10 167 10 519 -3 928 1 923 10 -3 5 -1 12 5 15 6 4 9 1 8 -7
-2 -7 8 -14 22 -16 22 -4 23 -2 10 15 -14 17 -14 17 6 0 22 -18 39 -23 29 -8
-3 5 -1 13 5 16 6 4 9 1 8 -7 -3 -15 99 -22 108 -7 3 5 13 9 22 8 14 0 13 -2
-3 -8 -13 -5 7 -8 52 -7 39 0 69 4 67 8 -3 5 -17 6 -31 4 -14 -3 -22 -2 -18 2
11 11 73 9 69 -3 -3 -6 12 -10 36 -11 22 -1 40 2 40 6 0 4 -14 6 -30 5 -17 -1
-28 0 -25 3 11 11 73 9 69 -2 -2 -6 7 -12 21 -12 14 -1 25 2 25 8 0 5 -4 7 -9
3 -5 -3 -12 -2 -14 2 -3 5 37 8 88 9 80 0 92 -2 88 -15 -4 -10 0 -9 10 4 16
20 16 20 17 1 0 -18 1 -18 13 -4 9 13 26 16 72 14 l60 -2 3 -42 c2 -29 8 -42
18 -42 8 0 12 -5 9 -10 -4 -6 -11 -7 -17 -4 -7 4 -8 2 -4 -5 4 -6 12 -9 17 -6
5 4 9 -3 9 -14 0 -12 7 -21 15 -21 8 0 15 -7 15 -15 0 -8 7 -15 15 -15 8 0 15
-8 15 -19 0 -12 7 -18 18 -17 9 0 16 -5 15 -11 -2 -7 6 -13 16 -13 29 0 52
-11 45 -22 -4 -5 36 -8 100 -7 62 1 106 5 106 11 0 6 -7 7 -16 4 -8 -3 -12 -2
-9 4 3 6 24 10 46 10 26 0 38 4 34 11 -4 6 3 13 15 16 11 3 19 11 16 18 -2 6
0 18 5 26 6 10 9 10 9 2 0 -7 5 -13 10 -13 6 0 10 11 10 25 0 14 7 28 15 31 8
4 15 12 15 20 0 7 8 18 18 24 16 11 16 11 0 6 -12 -3 -18 0 -18 10 0 8 4 13 9
9 5 -3 12 -1 15 4 4 5 -2 12 -11 14 -17 4 -17 5 0 6 9 0 17 9 17 19 0 15 7 18
45 15 25 -2 45 1 45 6 0 6 -7 8 -15 5 -8 -4 -15 -2 -15 3 0 16 34 11 48 -6 11
-14 11 -14 6 2 -5 15 1 17 47 18 30 1 60 1 67 0 6 -1 12 3 12 9 0 6 -4 9 -9 5
-5 -3 -12 -2 -15 3 -4 7 28 13 85 15 18 0 25 5 22 14 -4 9 6 13 33 14 22 1 42
1 47 0 12 -2 8 17 -5 22 -7 3 3 6 22 6 19 1 42 6 50 12 12 9 11 10 -5 4 -13
-4 -17 -3 -10 4 6 5 29 11 52 12 23 2 40 7 37 11 -3 5 -9 6 -14 3 -5 -3 -12
-1 -15 5 -4 6 -3 10 2 9 4 -1 25 -1 46 0 26 1 37 5 37 17 0 8 5 12 10 9 6 -4
7 -11 4 -17 -4 -7 -2 -8 5 -4 6 4 9 12 6 17 -4 5 10 9 30 9 22 0 34 4 30 10
-4 6 -12 7 -18 4 -7 -4 -9 -3 -4 1 4 5 18 10 30 12 12 2 28 11 36 21 13 16 13
16 8 0 -4 -10 -2 -18 3 -18 6 0 10 7 10 15 0 14 14 19 48 18 18 -1 14 15 -5
20 -10 3 -3 5 15 6 21 1 32 6 32 16 0 13 25 21 53 16 4 0 7 4 7 10 0 6 -7 8
-16 5 -8 -3 -12 -2 -9 4 3 6 17 10 31 10 15 0 24 6 24 15 0 8 6 15 14 15 8 0
17 7 20 16 4 9 9 14 13 11 3 -4 17 5 30 19 12 14 23 22 23 18 0 -4 6 1 14 11
8 11 12 23 10 27 -2 4 1 10 7 14 7 4 9 3 5 -4 -3 -6 -3 -13 2 -16 4 -2 9 5 9
16 1 12 7 26 14 32 9 8 10 8 5 -1 -3 -6 -1 -15 6 -19 7 -4 10 -4 6 1 -11 11
12 36 25 28 6 -3 7 -1 3 6 -4 6 -12 8 -18 5 -7 -4 -8 -2 -4 4 4 7 14 12 23 12
8 0 13 6 10 13 -3 9 4 13 23 12 22 0 26 -3 18 -12 -7 -9 -7 -13 2 -13 8 0 10
-3 6 -7 -4 -5 -14 1 -22 11 -8 11 -14 15 -14 9 0 -7 5 -15 10 -18 6 -4 8 -10
5 -15 -3 -5 0 -12 6 -16 8 -4 9 -3 5 4 -4 7 -3 12 2 12 8 0 16 -122 14 -202
-1 -10 4 -20 9 -24 6 -3 7 7 4 27 -3 19 -3 30 1 26 7 -7 11 -41 15 -145 2 -35
7 -66 13 -69 5 -3 6 -1 2 5 -3 6 -2 13 3 16 10 7 9 -20 -2 -30 -4 -4 -7 -12
-7 -18 0 -6 5 -4 10 4 7 11 10 2 10 -32 0 -37 4 -48 16 -48 8 0 12 -5 9 -10
-4 -6 -11 -7 -17 -4 -7 4 -8 2 -4 -5 4 -6 12 -9 17 -6 5 4 9 -10 9 -30 0 -29
3 -36 15 -31 9 3 15 0 15 -10 0 -8 -4 -13 -9 -9 -5 3 -13 0 -17 -6 -4 -8 -3
-9 5 -5 6 4 14 0 18 -10 10 -26 39 -52 60 -54 45 -5 63 0 63 19 0 11 5 23 12
27 7 5 8 2 3 -7 -5 -8 -4 -10 0 -6 9 8 13 23 17 65 1 14 7 21 15 18 9 -4 13 7
14 37 1 23 1 45 0 50 0 4 6 7 14 7 8 0 15 5 15 11 0 6 -7 8 -17 5 -16 -6 -16
-6 -1 11 11 12 18 39 19 75 2 46 5 55 18 50 14 -5 14 -4 1 13 -9 11 -10 16 -2
11 9 -5 12 8 13 56 2 105 4 118 16 126 8 5 13 35 13 77 3 148 4 164 11 159 5
-2 5 -12 2 -22 -3 -9 -2 -14 2 -10 13 12 14 71 1 87 -8 11 -8 13 2 7 6 -4 12
-2 12 3 0 6 -6 11 -12 11 -10 0 -10 2 -1 8 8 5 13 38 14 90 1 45 5 79 10 77 4
-3 11 0 15 6 4 7 3 9 -4 5 -17 -10 -25 13 -10 31 7 9 8 14 2 10 -8 -4 -11 17
-10 72 1 44 4 77 7 75 3 -2 5 -31 4 -64 -1 -33 1 -62 4 -64 3 -2 6 34 6 80 0
64 -4 87 -15 95 -13 9 -12 10 3 5 10 -3 17 0 17 8 0 7 8 20 18 27 15 13 16 12
3 -3 -12 -17 -10 -18 25 -19 29 0 34 -2 20 -8 -18 -7 -18 -8 -2 -14 10 -4 26
-7 36 -7 10 0 20 -7 24 -15 3 -8 15 -15 26 -15 11 0 20 -5 20 -11 0 -5 -6 -7
-12 -3 -8 4 -10 3 -5 -2 10 -10 14 -11 58 -13 18 0 28 -5 24 -11 -4 -6 -12 -7
-18 -4 -7 4 -9 3 -4 -1 4 -5 18 -10 30 -12 47 -6 68 -14 62 -23 -3 -6 5 -10
20 -10 14 0 28 -7 31 -15 4 -8 17 -15 30 -15 13 0 24 -5 24 -11 0 -5 -6 -7
-12 -3 -8 4 -9 3 -5 -2 9 -9 13 -10 60 -12 17 -1 27 -8 27 -17 0 -15 18 -19
69 -17 22 1 23 0 6 -12 -19 -13 -20 -13 43 -17 19 -1 32 -7 32 -16 0 -12 13
-15 67 -16 12 0 20 -4 17 -9 -3 -4 -10 -6 -15 -3 -5 4 -9 2 -9 -3 0 -5 21 -10
48 -11 26 -2 52 -3 59 -4 7 0 10 -4 7 -9 -3 -5 -10 -5 -16 -2 -6 4 -8 3 -5 -3
3 -5 23 -11 44 -12 21 -1 52 -3 70 -4 17 -1 35 -5 39 -9 4 -4 -3 -6 -14 -3
-12 2 -24 0 -26 -4 -3 -4 35 -7 85 -8 53 -1 91 3 95 9 4 6 2 8 -4 4 -6 -3 -14
-2 -17 4 -4 6 -3 10 2 9 27 -5 53 3 53 16 0 8 7 15 15 15 12 0 15 10 13 45 -2
36 -5 42 -14 30 -9 -11 -11 -7 -12 21 -2 42 -9 57 -24 48 -8 -5 -9 -1 -5 10 5
13 1 19 -13 23 -19 5 -20 6 -3 19 17 13 17 14 1 8 -14 -5 -18 -1 -18 15 0 12
-6 21 -15 21 -8 0 -15 7 -15 15 0 8 -6 14 -12 12 -7 -1 -14 9 -16 23 -2 14 -8
30 -14 35 -8 7 -9 5 -5 -7 4 -10 2 -18 -3 -18 -10 0 -14 21 -10 50 1 11 -3 9
-14 -5 -9 -11 -16 -15 -15 -10 4 29 -2 55 -11 50 -6 -4 -7 -12 -4 -18 4 -7 3
-8 -2 -4 -5 5 -9 12 -10 15 -2 20 -17 41 -25 36 -5 -3 -9 4 -9 15 0 12 -7 21
-15 21 -8 0 -15 7 -15 15 0 8 -3 14 -7 14 -26 -4 -43 4 -49 24 -5 12 -7 25 -6
29 1 4 -5 5 -13 2 -8 -4 -15 -1 -15 6 0 7 -7 10 -17 6 -15 -5 -14 -3 2 10 14
11 15 15 5 14 -35 -5 -50 1 -50 19 0 11 -5 23 -12 27 -7 4 -8 3 -4 -4 4 -7 2
-12 -3 -12 -6 0 -11 9 -11 20 0 13 -5 18 -15 14 -9 -4 -15 0 -15 10 0 9 -8 16
-17 16 -14 0 -15 2 -4 9 11 7 11 9 0 13 -13 5 132 11 193 9 15 -1 31 5 35 13
6 11 33 16 107 18 54 1 100 6 102 10 3 4 -5 5 -17 3 -12 -2 -19 -1 -15 3 7 6
29 9 139 13 31 2 52 6 45 10 -7 4 -16 5 -20 3 -4 -3 -8 0 -8 5 0 12 28 10 49
-3 10 -6 12 -5 7 2 -5 9 8 12 43 12 28 0 51 4 51 10 0 5 -7 7 -15 4 -8 -4 -15
-1 -15 4 0 6 9 9 20 7 31 -6 105 10 103 22 -1 6 6 10 15 10 59 0 71 3 66 18
-5 12 2 15 30 15 25 0 36 4 36 15 0 8 8 15 18 15 24 0 42 19 42 46 0 13 5 26
12 30 7 5 8 2 3 -7 -6 -11 -5 -12 5 -2 11 10 11 17 1 35 -6 13 -9 15 -7 5 3
-9 1 -17 -4 -17 -6 0 -10 11 -10 25 0 25 -34 49 -52 38 -5 -2 -8 3 -8 11 0 14
-24 22 -52 17 -4 0 -4 7 -1 17 3 9 3 14 -2 10 -11 -11 -47 11 -39 24 4 7 3 8
-5 4 -6 -4 -8 -12 -5 -18 4 -6 1 -8 -7 -6 -8 3 -13 11 -12 17 2 6 -11 11 -31
11 -19 0 -37 6 -39 13 -4 9 -6 9 -6 0 -1 -7 -5 -13 -11 -13 -5 0 -7 6 -4 13 5
13 -10 15 -128 21 -9 0 -14 4 -11 9 2 4 14 5 26 1 12 -3 19 -3 14 1 -8 10 -33
13 -100 14 -36 1 -46 4 -41 14 6 9 4 9 -7 1 -17 -14 -49 -14 -49 -1 0 5 7 7
15 4 8 -4 16 -3 19 1 3 4 -10 8 -29 9 -27 0 -32 -3 -28 -16 4 -12 3 -12 -9 2
-11 15 -29 19 -85 20 -49 0 -70 4 -67 12 3 7 -2 12 -11 12 -10 0 -14 -6 -10
-16 4 -12 1 -11 -9 2 -9 11 -24 17 -38 15 -17 -2 -23 2 -22 17 0 11 6 19 13
17 7 -1 15 7 18 18 4 14 11 19 20 15 11 -3 13 -1 9 10 -3 8 -1 15 4 15 5 0 7
8 4 18 -5 14 -4 14 5 2 12 -17 21 -10 24 18 0 11 4 20 7 20 3 0 8 1 13 2 4 1
13 3 20 4 6 0 14 12 15 25 2 13 12 25 22 28 12 3 17 11 12 21 -5 15 -4 15 12
3 9 -8 16 -10 15 -5 -4 25 3 44 16 44 8 0 15 7 15 15 0 8 7 15 15 15 9 0 15 9
15 24 0 14 5 28 12 32 8 5 9 2 5 -10 -4 -10 -3 -15 3 -11 6 3 10 19 10 35 0
24 3 28 18 23 15 -6 15 -5 3 11 -12 15 -12 17 0 14 10 -2 13 6 12 29 -1 19 3
32 9 30 6 -1 13 13 15 31 3 24 0 32 -11 32 -9 0 -16 9 -16 19 0 11 -5 23 -12
27 -7 5 -8 3 -3 -6 5 -8 3 -11 -6 -8 -8 3 -13 10 -12 16 1 6 -31 10 -82 11
-55 1 -85 -3 -85 -9 0 -6 6 -8 13 -4 6 4 8 3 4 -1 -15 -17 -39 -14 -33 3 5 13
2 12 -9 -2 -18 -23 -16 -37 -15 153 1 114 -2 142 -12 139 -10 -4 -14 14 -15
76 -6 182 -6 186 -20 186 -7 0 -12 10 -12 23 3 73 -4 178 -12 183 -5 3 -6 -2
-3 -10 3 -9 2 -16 -3 -16 -5 0 -10 6 -10 13 -1 6 -2 33 -4 59 -2 39 -4 44 -14
32 -10 -14 -11 -13 -12 8 -1 57 -4 68 -18 68 -8 0 -15 5 -15 11 0 5 4 8 9 4 5
-3 13 -1 16 5 4 6 1 9 -7 8 -7 -2 -14 8 -16 22 -2 14 -8 30 -13 35 -7 7 -8 3
-4 -10 6 -16 5 -17 -4 -5 -6 8 -11 28 -11 43 0 15 -7 30 -15 33 -8 4 -15 15
-15 26 0 10 -4 16 -10 13 -10 -6 -19 21 -23 63 -1 22 -2 22 -15 5 -10 -13 -13
-14 -12 -3 5 33 -1 50 -15 50 -10 0 -15 10 -15 30 0 20 -5 30 -15 30 -8 0 -15
7 -15 15 0 8 -7 15 -15 15 -8 0 -15 9 -15 20 0 11 -5 19 -12 18 -12 -3 -14 2
-17 37 0 8 -7 15 -15 15 -7 0 -16 9 -19 21 -3 12 -10 18 -16 14 -6 -3 -11 1
-11 9 0 9 -7 16 -15 16 -8 0 -15 5 -15 11 0 7 -8 18 -17 25 -17 13 -17 14 2 8
18 -5 18 -4 -2 8 -12 7 -23 18 -25 23 -2 6 -6 9 -10 8 -4 -2 -10 6 -13 17 -4
13 -15 20 -32 20 -22 0 -24 2 -13 16 8 8 9 14 4 13 -30 -5 -53 2 -48 16 6 14
-18 21 -49 16 -5 -1 -6 3 -2 9 3 6 11 8 16 5 5 -4 9 -1 9 4 0 6 -13 11 -30 11
-16 0 -30 4 -30 10 0 5 7 6 17 3 11 -4 14 -3 9 5 -4 7 -18 12 -32 12 -14 0
-24 6 -24 14 0 7 -9 16 -21 19 -12 3 -18 10 -14 16 5 10 -22 16 -48 12 -5 -1
-6 3 -2 9 3 6 11 7 17 4 7 -5 8 -2 4 5 -5 7 -10 10 -14 7 -3 -3 -11 2 -19 12
-8 9 -12 11 -8 5 3 -7 1 -13 -4 -13 -6 0 -11 7 -11 15 0 8 -9 15 -20 15 -14 0
-18 5 -13 17 4 10 2 14 -4 10 -13 -8 -36 17 -25 27 4 4 3 7 -3 6 -26 -6 -55 1
-55 13 0 7 -8 13 -17 14 -57 4 -65 7 -49 19 13 9 8 11 -22 13 -20 1 -43 3 -49
3 -7 1 -13 6 -13 11 0 5 8 6 18 2 11 -4 14 -3 7 4 -6 5 -27 11 -48 13 -26 1
-36 6 -33 15 4 9 -7 13 -40 13 -27 0 -46 5 -49 13 -2 6 -6 59 -9 117 -5 123
-3 113 -16 105 -6 -3 -7 1 -4 9 3 9 11 13 17 9 6 -3 7 -1 3 6 -4 6 -12 9 -17
6 -5 -4 -9 10 -9 29 0 26 -4 36 -16 36 -8 0 -12 5 -9 10 4 6 11 7 17 4 7 -4 8
-2 4 5 -4 6 -12 9 -17 6 -8 -6 -13 8 -10 28 1 4 -6 10 -14 13 -8 4 -15 17 -15
31 0 14 -4 22 -11 18 -6 -4 -13 2 -16 14 -3 12 -12 21 -19 21 -8 0 -14 8 -14
18 0 9 -5 24 -11 32 -9 13 -10 12 -5 -2 3 -10 1 -18 -4 -18 -6 0 -10 7 -10 15
0 8 -7 15 -15 15 -8 0 -15 9 -15 21 0 11 -5 17 -10 14 -6 -3 -13 1 -16 9 -3 9
-15 16 -25 16 -12 0 -16 5 -12 15 3 9 2 15 -3 14 -30 -5 -54 3 -54 19 0 14 -2
15 -10 2 -6 -10 -10 -11 -10 -2 0 6 -12 12 -26 12 -18 0 -25 4 -21 14 3 8 -1
13 -11 13 -116 0 -141 4 -145 21 -4 13 -5 14 -6 1 -1 -12 -14 -15 -60 -15 -40
0 -58 3 -54 10 4 6 0 6 -8 -1 -8 -7 -32 -13 -53 -15 -20 -1 -41 -8 -45 -15 -3
-7 -22 -15 -41 -17 -19 -2 -39 -4 -43 -5 -5 0 -5 -5 -2 -11 3 -5 -3 -10 -14
-10 -12 0 -21 -7 -21 -15 0 -8 -6 -15 -14 -15 -8 0 -16 -7 -20 -15 -3 -8 -9
-15 -13 -14 -24 4 -43 -2 -38 -12 4 -6 -2 -13 -14 -16 -12 -3 -21 -13 -21 -24
0 -12 -5 -16 -15 -13 -14 6 -19 -7 -17 -46 0 -11 -4 -10 -15 5 -11 14 -14 15
-10 3 3 -9 3 -19 -1 -23 -4 -4 -7 -12 -7 -18 -1 -7 -6 -11 -13 -9 -7 1 -12 -9
-12 -23 0 -14 -7 -28 -15 -31 -9 -4 -15 -19 -15 -35 0 -17 -6 -32 -15 -35 -11
-5 -15 -22 -15 -66 0 -46 -3 -59 -13 -55 -8 3 -14 -1 -14 -8 0 -7 6 -11 12 -9
6 3 12 -2 12 -11 0 -10 -6 -14 -15 -10 -12 4 -13 3 -3 -9 11 -13 9 -14 -13
-10 -13 2 -28 -1 -32 -7 -5 -8 -3 -9 7 -4 8 5 11 4 6 -1 -5 -5 -109 -9 -233
-10 -202 -1 -223 1 -212 15 10 13 9 13 -7 -1 -16 -13 -43 -17 -140 -17 -588
-1 -650 -3 -664 -14 -12 -9 -13 -9 -7 0 10 17 -212 17 -233 0 -9 -8 -12 -8 -8
-1 4 7 -5 11 -25 12 -24 1 -28 -2 -18 -8 8 -6 10 -10 4 -10 -6 0 -14 3 -18 7
-4 5 -36 8 -71 9 -54 1 -62 -2 -58 -15 4 -12 2 -12 -8 2 -18 22 -90 20 -101
-3 -5 -12 -7 -10 -8 5 l-1 20 -16 -20 c-10 -13 -14 -14 -10 -4 4 13 -8 15 -93
15 -54 -1 -102 -5 -107 -10 -5 -5 -2 -6 6 -1 9 5 12 4 7 -3 -10 -17 -26 -15
-26 3 0 8 -6 15 -13 15 -10 0 -14 17 -13 65 1 48 4 64 13 60 7 -2 13 0 13 5 0
6 -8 10 -17 11 -15 0 -15 2 -3 7 17 8 26 52 11 52 -6 0 -8 -6 -5 -14 3 -8 2
-16 -3 -19 -4 -3 -9 6 -9 19 -1 13 3 24 10 24 6 0 12 18 13 41 2 35 0 40 -15
35 -15 -5 -15 -4 -2 6 17 15 27 53 11 43 -6 -3 -11 -1 -11 4 0 6 5 11 11 11 6
0 10 28 9 73 -1 39 -1 149 0 244 1 158 2 172 18 166 16 -5 16 -5 0 8 -13 11
-16 29 -14 86 1 40 4 75 7 78 3 3 5 -22 4 -55 -1 -33 1 -60 4 -60 3 0 6 43 7
95 0 52 -3 95 -7 95 -5 0 -6 -7 -3 -15 4 -8 2 -15 -4 -15 -15 0 -8 30 9 40 11
8 10 12 -6 25 -20 15 -20 15 0 8 18 -6 19 -5 5 12 -8 10 -10 16 -4 12 9 -5 12
37 14 156 3 233 4 260 14 276 6 9 5 12 -1 8 -7 -4 -10 19 -10 68 1 41 5 75 10
75 4 0 6 -4 2 -9 -3 -5 -2 -12 3 -15 4 -2 8 6 8 20 0 14 -5 23 -11 20 -6 -2
-11 8 -10 24 0 16 4 26 8 23 5 -3 6 -12 3 -20 -3 -8 -1 -11 4 -8 14 9 8 37
-10 53 -13 12 -13 13 0 9 12 -4 16 3 15 28 0 18 -3 37 -8 41 -4 4 -7 12 -7 18
0 6 5 4 10 -4 8 -11 10 5 10 55 -1 39 -1 148 -1 244 1 160 2 173 19 167 15 -5
15 -5 1 6 -12 10 -15 33 -15 100 0 47 3 85 6 83 4 -2 6 -34 5 -70 -1 -36 1
-67 4 -69 3 -2 7 66 8 152 3 340 6 421 14 416 5 -3 6 -10 3 -16 -4 -7 -2 -8 5
-4 9 6 9 11 -1 23 -18 22 -18 153 -1 153 7 0 13 5 13 11 0 6 -6 9 -13 6 -14
-5 -18 36 -4 49 3 4 5 -3 2 -15 -2 -11 0 -21 4 -21 4 0 8 28 8 63 2 312 5 386
16 391 9 3 9 5 0 5 -7 1 -13 10 -13 22 0 13 4 18 13 13 10 -6 10 -4 0 7 -19
19 -16 39 5 33 14 -5 14 -4 2 5 -10 7 -15 29 -15 71 -1 33 2 60 5 60 4 0 6
-20 5 -45 0 -24 1 -42 5 -39 3 3 6 74 6 157 3 334 8 487 16 487 5 0 7 -4 3 -9
-3 -5 -2 -12 2 -14 11 -7 10 115 -1 132 -7 10 -6 12 3 6 9 -5 12 1 11 21 -6
83 1 334 9 330 5 -3 12 1 15 10 8 21 8 24 -5 24 -5 0 -7 -4 -4 -10 3 -5 2 -10
-4 -10 -13 0 -10 43 4 52 6 4 11 53 12 115 3 238 6 283 17 282 41 -5 76 2 76
16 0 8 5 15 11 15 6 0 8 -8 5 -17 -6 -17 -5 -17 7 -1 8 10 25 19 37 21 13 2
26 9 28 15 2 7 10 12 18 12 8 0 14 7 14 15 0 10 10 15 31 15 24 0 30 4 25 15
-4 10 1 15 14 15 11 0 20 7 20 15 0 8 7 15 15 15 8 0 15 7 15 15 0 8 7 15 15
15 8 0 16 7 16 15 3 29 4 33 13 42 5 4 6 3 2 -4 -3 -6 -2 -15 4 -18 6 -4 10
-3 9 2 -5 27 3 53 16 53 8 0 15 9 15 20 0 11 6 20 13 20 8 0 7 4 -3 10 -13 8
-12 10 3 10 17 0 20 10 19 63 0 15 4 27 9 27 6 0 8 -4 4 -9 -3 -5 -1 -12 3
-15 5 -3 10 33 11 81 2 92 6 107 23 97 7 -4 8 -2 4 5 -4 6 -11 9 -15 6 -5 -2
-9 19 -11 48 -4 95 -5 105 -14 114 -5 5 -6 3 -2 -4 4 -7 2 -13 -3 -13 -6 0
-11 16 -11 36 0 19 -7 42 -15 50 -8 9 -15 24 -15 35 0 10 -7 19 -15 19 -10 0
-15 10 -15 30 0 23 -4 30 -20 30 -13 0 -18 5 -14 15 4 9 0 15 -10 15 -9 0 -16
7 -16 15 0 8 -7 15 -15 15 -8 0 -15 7 -15 15 0 8 -7 15 -15 15 -8 0 -15 7 -15
15 0 10 -10 15 -30 15 -20 0 -30 5 -30 15 0 14 -16 19 -50 16 -13 -2 -13 -1 0
8 8 5 18 7 24 4 5 -3 6 -1 3 4 -4 6 -18 11 -33 11 -14 0 -30 6 -35 13 -4 8
-12 14 -16 15 -36 4 -41 16 -39 99 1 68 3 81 14 72 11 -9 13 1 12 54 -4 149 0
260 9 254 5 -3 13 0 17 6 4 8 3 9 -5 5 -17 -11 -25 22 -10 41 8 9 9 14 3 10
-6 -3 -11 1 -11 9 0 8 5 13 11 11 18 -7 14 111 -4 124 -13 9 -12 10 3 5 12 -4
17 0 17 15 0 11 -4 18 -9 14 -5 -3 -13 -1 -16 5 -4 6 -1 9 7 8 10 -2 14 23 16
112 2 76 7 117 15 122 9 6 9 8 0 8 -19 0 -16 27 5 40 13 9 13 10 1 7 -13 -4
-15 4 -15 43 0 27 4 46 8 44 3 -2 5 -15 2 -29 -2 -13 -1 -26 3 -28 5 -3 9 19
10 49 1 31 -3 52 -8 48 -5 -3 -6 -10 -3 -16 5 -7 2 -8 -5 -4 -9 6 -8 13 5 27
16 18 16 20 -2 41 -15 19 -16 20 -1 9 16 -13 17 -7 18 95 1 60 1 129 0 153 -1
31 3 42 12 38 9 -3 12 12 13 54 0 33 -3 59 -8 59 -5 0 -6 -5 -2 -12 5 -7 3 -8
-6 -3 -10 6 -9 11 4 21 10 7 17 15 17 18 -1 3 -1 58 -1 122 0 89 3 114 13 108
9 -6 9 -4 1 7 -7 8 -12 55 -13 104 -3 129 -5 162 -13 170 -4 4 -5 -4 -2 -19 2
-14 1 -26 -4 -26 -4 0 -8 15 -9 33 -3 106 -8 155 -15 151 -5 -3 -6 -10 -3 -15
4 -5 2 -9 -4 -9 -6 0 -11 15 -11 33 -1 71 -4 85 -17 80 -9 -4 -13 5 -13 27 0
18 -7 38 -15 44 -8 6 -15 27 -17 47 -1 26 -6 35 -15 32 -12 -5 -19 29 -14 60
1 5 -3 6 -9 2 -6 -3 -8 -11 -5 -16 4 -5 1 -9 -4 -9 -6 0 -10 8 -9 18 4 53 -2
84 -17 78 -11 -4 -15 3 -16 27 -1 18 -1 38 0 45 1 6 -3 12 -9 12 -6 0 -9 -4
-5 -9 3 -5 2 -12 -3 -15 -4 -2 -9 5 -10 17 -4 41 -8 56 -17 64 -4 4 -5 3 -1
-4 3 -6 2 -15 -4 -18 -6 -4 -10 -3 -9 2 5 27 -3 53 -16 53 -10 0 -15 10 -15
31 0 24 -4 30 -15 25 -10 -3 -15 1 -15 11 0 9 -8 22 -17 30 -17 14 -17 14 2 8
14 -4 11 2 -12 24 -18 16 -33 37 -33 45 0 9 -6 13 -14 10 -9 -3 -16 5 -20 22
-6 22 -9 25 -17 13 -7 -11 -9 -9 -9 10 0 16 -4 21 -15 17 -8 -3 -14 -2 -13 2
5 20 -15 52 -34 52 -11 0 -22 8 -25 19 -3 13 -10 18 -21 13 -15 -5 -16 -4 -2
13 9 11 10 16 3 11 -8 -4 -13 -2 -13 4 0 6 -5 8 -12 4 -8 -5 -9 -2 -5 10 4 10
3 15 -3 11 -6 -3 -10 -2 -10 4 0 6 -7 8 -15 5 -11 -4 -15 0 -15 16 0 16 -4 20
-16 16 -12 -4 -15 -2 -10 9 4 10 -1 15 -14 15 -11 0 -20 6 -20 14 0 7 -9 16
-21 19 -12 3 -18 10 -14 16 6 10 -11 15 -45 13 -11 0 -10 4 5 15 16 12 16 14
3 10 -10 -3 -20 -2 -23 4 -4 5 -11 7 -16 4 -5 -4 -9 1 -9 9 0 10 -9 16 -25 16
-14 0 -25 5 -25 11 0 5 6 7 13 3 7 -4 9 -3 4 2 -9 9 -13 10 -42 13 -8 0 -15 9
-15 18 0 15 -2 14 -15 -3 -13 -16 -14 -16 -9 -1 5 13 0 17 -21 17 -22 0 -25 3
-16 13 9 11 3 14 -27 16 -20 1 -42 3 -49 3 -7 1 -10 5 -7 10 3 5 10 6 15 3 5
-4 9 -1 9 5 0 6 -6 10 -12 9 -34 -4 -60 2 -55 14 3 8 -6 12 -27 13 -56 3 -85
8 -80 16 3 4 12 4 21 1 11 -4 14 -3 9 5 -4 7 -25 12 -46 12 -21 0 -42 4 -45
10 -3 6 1 7 9 4 9 -3 16 -1 16 5 0 6 -3 10 -7 10 -5 -1 -25 -1 -45 0 -27 1
-38 6 -38 16 0 10 -10 15 -28 15 -15 0 -34 6 -41 13 -11 10 -13 10 -7 0 4 -7
2 -13 -3 -13 -6 0 -11 7 -11 15 0 10 -10 15 -28 15 -15 0 -34 6 -41 13 -9 8
-12 8 -7 0 8 -15 -53 -11 -63 5 -4 6 -45 12 -104 13 -65 2 -96 6 -94 14 5 11
-142 16 -149 4z m90 -11 c-3 -4 -9 -8 -15 -8 -5 0 -9 4 -9 8 0 5 7 9 15 9 8 0
12 -4 9 -9z m-474 -52 c0 -3 -4 -8 -10 -11 -5 -3 -10 -1 -10 4 0 6 5 11 10 11
6 0 10 -2 10 -4z m1785 -546 c3 -5 1 -10 -4 -10 -6 0 -11 5 -11 10 0 6 2 10 4
10 3 0 8 -4 11 -10z m365 -610 c0 -5 -2 -10 -4 -10 -3 0 -8 5 -11 10 -3 6 -1
10 4 10 6 0 11 -4 11 -10z m-4580 -830 c0 -5 -5 -10 -11 -10 -5 0 -7 5 -4 10
3 6 8 10 11 10 2 0 4 -4 4 -10z m4696 -119 c-2 -42 -11 -46 -12 -5 0 19 2 34
6 34 4 0 7 -13 6 -29z m-5301 -61 c3 -5 1 -10 -4 -10 -6 0 -11 5 -11 10 0 6 2
10 4 10 3 0 8 -4 11 -10z m10 -350 c3 -5 1 -10 -4 -10 -6 0 -11 5 -11 10 0 6
2 10 4 10 3 0 8 -4 11 -10z m712 -265 c0 -8 -4 -15 -9 -15 -10 0 -11 14 -1 23
9 10 10 9 10 -8z m3 -59 c0 -3 -4 -8 -10 -11 -5 -3 -10 -1 -10 4 0 6 5 11 10
11 6 0 10 -2 10 -4z m4516 -206 c0 -16 -4 -30 -7 -30 -4 0 -6 14 -5 30 0 17 4
30 7 30 4 0 6 -13 5 -30z m4 -620 c0 -5 -5 -10 -11 -10 -5 0 -7 5 -4 10 3 6 8
10 11 10 2 0 4 -4 4 -10z m-4580 -100 c0 -5 -2 -10 -4 -10 -3 0 -8 5 -11 10
-3 6 -1 10 4 10 6 0 11 -4 11 -10z m-39 -523 c-10 -9 -11 -8 -5 6 3 10 9 15
12 12 3 -3 0 -11 -7 -18z m4495 -762 c-1 -8 -5 -17 -8 -21 -5 -4 -4 16 1 34 3
9 9 -1 7 -13z m-1 -44 c3 -5 2 -12 -3 -15 -5 -3 -9 1 -9 9 0 17 3 19 12 6z m2
-46 c0 -8 -4 -15 -9 -15 -10 0 -11 14 -1 23 9 10 10 9 10 -8z m-4554 -170 c-3
-9 -8 -14 -10 -11 -3 3 -2 9 2 15 9 16 15 13 8 -4z m4524 -365 c-5 -31 -13
-32 -12 -1 0 16 3 27 7 25 4 -3 6 -14 5 -24z m-27 -550 c0 -5 -4 -10 -10 -10
-5 0 -10 5 -10 10 0 6 5 10 10 10 6 0 10 -4 10 -10z m-4580 -600 c0 -5 -5 -10
-11 -10 -5 0 -7 5 -4 10 3 6 8 10 11 10 2 0 4 -4 4 -10z m-4 -165 c-1 -8 -5
-17 -8 -21 -5 -4 -4 16 1 34 3 9 9 -1 7 -13z m-59 -1105 c-1 -11 -5 -20 -9
-20 -3 0 -6 9 -5 20 1 11 5 20 9 20 3 0 6 -9 5 -20z m-31 -669 c-1 -44 -9 -46
-12 -3 -1 25 3 42 10 42 2 0 3 -18 2 -39z m-1 -81 c1 -10 -2 -17 -6 -14 -4 2
-7 13 -6 24 2 23 10 17 12 -10z m4552 -105 c0 -8 -4 -12 -9 -9 -5 3 -6 10 -3
15 9 13 12 11 12 -6z m-4581 -600 c-1 -30 -4 -55 -7 -55 -3 0 -5 25 -5 55 0
30 3 55 6 55 4 0 6 -25 6 -55z m7424 5 c0 -5 -5 -10 -11 -10 -5 0 -7 5 -4 10
3 6 8 10 11 10 2 0 4 -4 4 -10z m-7426 -110 c1 -17 -1 -33 -4 -35 -3 -2 -7 14
-7 36 -1 46 8 46 11 -1z m4726 -490 c0 -3 -27 -6 -60 -6 -33 0 -60 3 -60 6 0
3 27 6 60 6 33 -1 60 -3 60 -6z m34 2 c3 -5 -1 -9 -9 -9 -8 0 -12 4 -9 9 3 4
7 8 9 8 2 0 6 -4 9 -8z m90 0 c3 -5 -1 -9 -9 -9 -8 0 -12 4 -9 9 3 4 7 8 9 8
2 0 6 -4 9 -8z m46 0 c0 -5 -7 -9 -15 -9 -8 0 -15 4 -15 9 0 4 7 8 15 8 8 0
15 -4 15 -8z m3285 -212 c3 -5 1 -10 -4 -10 -6 0 -11 5 -11 10 0 6 2 10 4 10
3 0 8 -4 11 -10z m-8207 -55 c-3 -3 -9 2 -12 12 -6 14 -5 15 5 6 7 -7 10 -15
7 -18z m-32 -876 c1 -16 -2 -29 -6 -29 -4 0 -6 15 -6 34 1 41 10 37 12 -5z m4
-79 c0 -5 -5 -10 -11 -10 -5 0 -7 5 -4 10 3 6 8 10 11 10 2 0 4 -4 4 -10z
m9435 -909 c3 -5 2 -12 -3 -15 -5 -3 -9 1 -9 9 0 17 3 19 12 6z m-360 -500 c3
-5 2 -12 -3 -15 -5 -3 -9 1 -9 9 0 17 3 19 12 6z m-9245 -271 c0 -5 -2 -10 -4
-10 -3 0 -8 5 -11 10 -3 6 -1 10 4 10 6 0 11 -4 11 -10z m45 0 c-3 -5 -14 -10
-23 -9 -14 0 -13 2 3 9 27 11 27 11 20 0z m10045 -84 c0 -3 -4 -8 -10 -11 -5
-3 -10 -1 -10 4 0 6 5 11 10 11 6 0 10 -2 10 -4z m-9890 -133 c0 -21 -3 -24
-9 -14 -5 8 -7 20 -4 28 8 21 13 15 13 -14z m9066 -80 c-8 -8 -57 -12 -52 -5
2 4 16 8 31 8 14 1 24 0 21 -3z m44 -3 c0 -5 -7 -10 -16 -10 -8 0 -12 5 -9 10
3 6 10 10 16 10 5 0 9 -4 9 -10z m-9020 -180 c0 -5 -5 -10 -11 -10 -5 0 -7 5
-4 10 3 6 8 10 11 10 2 0 4 -4 4 -10z m9050 -100 c0 -5 -2 -10 -4 -10 -3 0 -8
5 -11 10 -3 6 -1 10 4 10 6 0 11 -4 11 -10z m-8870 -290 c0 -5 -2 -10 -4 -10
-3 0 -8 5 -11 10 -3 6 -1 10 4 10 6 0 11 -4 11 -10z m570 -630 c0 -5 -2 -10
-4 -10 -3 0 -8 5 -11 10 -3 6 -1 10 4 10 6 0 11 -4 11 -10z m4550 -390 c8 -5
11 -10 5 -10 -5 0 -17 5 -25 10 -8 5 -10 10 -5 10 6 0 17 -5 25 -10z m120 4
c0 -8 -19 -13 -24 -6 -3 5 1 9 9 9 8 0 15 -2 15 -3z m-3440 -34 c0 -5 -4 -10
-10 -10 -5 0 -10 5 -10 10 0 6 5 10 10 10 6 0 10 -4 10 -10z m1420 6 c0 -3 -4
-8 -10 -11 -5 -3 -10 -1 -10 4 0 6 5 11 10 11 6 0 10 -2 10 -4z m144 -7 c3 -3
-4 -5 -14 -6 -11 -1 -20 2 -20 7 0 8 25 8 34 -1z"/>
<path d="M7515 15290 c-3 -5 -1 -10 4 -10 6 0 11 5 11 10 0 6 -2 10 -4 10 -3
0 -8 -4 -11 -10z"/>
<path d="M7700 15260 c0 -4 7 -7 15 -6 23 3 26 12 5 13 -11 1 -20 -2 -20 -7z"/>
<path d="M6485 15080 c-3 -5 -1 -10 4 -10 6 0 11 5 11 10 0 6 -2 10 -4 10 -3
0 -8 -4 -11 -10z"/>
<path d="M5910 14600 c0 -5 5 -10 10 -10 6 0 10 5 10 10 0 6 -4 10 -10 10 -5
0 -10 -4 -10 -10z"/>
<path d="M5310 14221 c0 -6 4 -12 8 -15 5 -3 9 1 9 9 0 8 -4 15 -9 15 -4 0 -8
-4 -8 -9z"/>
<path d="M5285 14120 c-3 -5 -1 -10 4 -10 6 0 11 5 11 10 0 6 -2 10 -4 10 -3
0 -8 -4 -11 -10z"/>
<path d="M4950 13400 c0 -5 5 -10 11 -10 5 0 7 5 4 10 -3 6 -8 10 -11 10 -2 0
-4 -4 -4 -10z"/>
<path d="M9226 13037 c3 -10 9 -15 12 -12 3 3 0 11 -7 18 -10 9 -11 8 -5 -6z"/>
<path d="M3755 12900 c-3 -5 -1 -10 4 -10 6 0 11 5 11 10 0 6 -2 10 -4 10 -3
0 -8 -4 -11 -10z"/>
<path d="M4475 12520 c-3 -5 -1 -10 4 -10 6 0 11 5 11 10 0 6 -2 10 -4 10 -3
0 -8 -4 -11 -10z"/>
<path d="M4599 12098 c-5 -16 -4 -46 2 -42 4 2 7 13 6 24 -1 17 -5 26 -8 18z"/>
<path d="M4594 11979 c-1 -16 2 -29 6 -29 7 0 7 46 0 54 -3 2 -6 -9 -6 -25z"/>
<path d="M9134 11680 c0 -65 11 -65 13 0 1 28 -2 50 -6 50 -3 0 -7 -22 -7 -50z"/>
<path d="M4571 11594 c0 -11 3 -14 6 -6 3 7 2 16 -1 19 -3 4 -6 -2 -5 -13z"/>
<path d="M4533 11092 c2 -12 6 -24 10 -28 3 -4 4 4 2 16 -6 30 -16 40 -12 12z"/>
<path d="M4530 11040 c0 -5 5 -10 10 -10 6 0 10 5 10 10 0 6 -4 10 -10 10 -5
0 -10 -4 -10 -10z"/>
<path d="M9555 10989 c-4 -6 -5 -12 -2 -15 2 -3 7 2 10 11 7 17 1 20 -8 4z"/>
<path d="M4475 10090 c3 -5 8 -10 11 -10 2 0 4 5 4 10 0 6 -5 10 -11 10 -5 0
-7 -4 -4 -10z"/>
<path d="M4470 10000 c0 -5 5 -10 10 -10 6 0 10 5 10 10 0 6 -4 10 -10 10 -5
0 -10 -4 -10 -10z"/>
<path d="M4443 9572 c0 -12 5 -22 9 -22 11 0 10 12 -2 30 -7 12 -9 10 -7 -8z"/>
<path d="M9019 9428 c-5 -9 -5 -48 -1 -43 6 6 11 45 5 45 -2 0 -4 -1 -4 -2z"/>
<path d="M4414 8950 c0 -22 3 -40 7 -40 7 0 5 67 -3 75 -2 3 -4 -13 -4 -35z"/>
<path d="M8955 8201 c-3 -5 -2 -12 3 -15 5 -3 9 1 9 9 0 17 -3 19 -12 6z"/>
<path d="M4355 7900 c3 -5 8 -10 11 -10 2 0 4 5 4 10 0 6 -5 10 -11 10 -5 0
-7 -4 -4 -10z"/>
<path d="M4325 7259 c-4 -6 -5 -12 -2 -15 2 -3 7 2 10 11 7 17 1 20 -8 4z"/>
<path d="M8895 6740 c-3 -5 -1 -10 4 -10 6 0 11 5 11 10 0 6 -2 10 -4 10 -3 0
-8 -4 -11 -10z"/>
<path d="M4296 6583 c-6 -14 -5 -15 5 -6 7 7 10 15 7 18 -3 3 -9 -2 -12 -12z"/>
<path d="M8865 5969 c-4 -6 -5 -12 -2 -15 2 -3 7 2 10 11 7 17 1 20 -8 4z"/>
<path d="M11520 5720 c18 -12 30 -13 30 -2 0 4 -10 9 -22 9 -18 2 -20 0 -8 -7z"/>
<path d="M8830 5201 c0 -6 4 -13 10 -16 6 -3 7 1 4 9 -7 18 -14 21 -14 7z"/>
<path d="M8830 5120 c0 -5 5 -10 11 -10 5 0 7 5 4 10 -3 6 -8 10 -11 10 -2 0
-4 -4 -4 -10z"/>
<path d="M10525 5120 c-3 -5 -1 -10 4 -10 6 0 11 5 11 10 0 6 -2 10 -4 10 -3
0 -8 -4 -11 -10z"/>
<path d="M10585 5120 c-3 -5 -1 -10 4 -10 6 0 11 5 11 10 0 6 -2 10 -4 10 -3
0 -8 -4 -11 -10z"/>
<path d="M10675 5120 c-3 -5 -1 -10 4 -10 6 0 11 5 11 10 0 6 -2 10 -4 10 -3
0 -8 -4 -11 -10z"/>
<path d="M10700 5120 c0 -5 5 -10 11 -10 5 0 7 5 4 10 -3 6 -8 10 -11 10 -2 0
-4 -4 -4 -10z"/>
<path d="M10735 5119 c-3 -4 2 -6 10 -5 21 3 28 13 10 13 -9 0 -18 -4 -20 -8z"/>
<path d="M10805 5119 c5 -7 52 -6 59 2 3 2 -10 5 -29 5 -18 0 -32 -3 -30 -7z"/>
<path d="M4235 5100 c3 -5 8 -10 11 -10 2 0 4 5 4 10 0 6 -5 10 -11 10 -5 0
-7 -4 -4 -10z"/>
<path d="M12135 5030 c3 -5 8 -10 11 -10 2 0 4 5 4 10 0 6 -5 10 -11 10 -5 0
-7 -4 -4 -10z"/>
<path d="M13395 3391 c-3 -5 -2 -12 3 -15 5 -3 9 1 9 9 0 17 -3 19 -12 6z"/>
<path d="M13395 3330 c3 -5 8 -10 11 -10 2 0 4 5 4 10 0 6 -5 10 -11 10 -5 0
-7 -4 -4 -10z"/>
<path d="M3995 3320 c3 -5 8 -10 11 -10 2 0 4 5 4 10 0 6 -5 10 -11 10 -5 0
-7 -4 -4 -10z"/>
<path d="M3577 2791 c-4 -17 -3 -21 5 -13 5 5 8 16 6 23 -3 8 -7 3 -11 -10z"/>
<path d="M13425 2560 c-3 -5 -1 -10 4 -10 6 0 11 5 11 10 0 6 -2 10 -4 10 -3
0 -8 -4 -11 -10z"/>
<path d="M13427 2419 c7 -7 15 -10 18 -7 3 3 -2 9 -12 12 -14 6 -15 5 -6 -5z"/>
<path d="M13398 1863 c7 -3 16 -2 19 1 4 3 -2 6 -13 5 -11 0 -14 -3 -6 -6z"/>
<path d="M4265 1840 c-3 -5 -1 -10 4 -10 6 0 11 5 11 10 0 6 -2 10 -4 10 -3 0
-8 -4 -11 -10z"/>
<path d="M13335 1670 c3 -5 8 -10 11 -10 2 0 4 5 4 10 0 6 -5 10 -11 10 -5 0
-7 -4 -4 -10z"/>
<path d="M12061 804 c0 -11 3 -14 6 -6 3 7 2 16 -1 19 -3 4 -6 -2 -5 -13z"/>
<path d="M12465 719 c6 -32 13 -34 13 -4 0 14 -4 25 -9 25 -4 0 -6 -10 -4 -21z"/>
<path d="M12433 508 c-2 -18 0 -20 7 -8 12 18 13 30 2 30 -4 0 -9 -10 -9 -22z"/>
<path d="M6030 280 c0 -5 5 -10 11 -10 5 0 7 5 4 10 -3 6 -8 10 -11 10 -2 0
-4 -4 -4 -10z"/>
<path d="M10006 281 c7 -8 84 -9 84 -2 0 4 -20 7 -44 7 -25 0 -43 -3 -40 -5z"/>
<path d="M10110 280 c0 -5 5 -10 11 -10 5 0 7 5 4 10 -3 6 -8 10 -11 10 -2 0
-4 -4 -4 -10z"/>
<path d="M10195 280 c-3 -5 -1 -10 4 -10 6 0 11 5 11 10 0 6 -2 10 -4 10 -3 0
-8 -4 -11 -10z"/>
<path d="M10226 282 c-2 -4 4 -8 14 -8 10 0 16 4 14 8 -3 4 -9 8 -14 8 -5 0
-11 -4 -14 -8z"/>
<path d="M8490 250 c-9 -6 -10 -10 -3 -10 6 0 15 5 18 10 8 12 4 12 -15 0z"/>
<path d="M6595 220 c3 -5 8 -10 11 -10 2 0 4 5 4 10 0 6 -5 10 -11 10 -5 0 -7
-4 -4 -10z"/>
<path d="M12246 162 c-2 -4 9 -8 25 -9 16 -1 29 1 29 5 0 10 -48 14 -54 4z"/>
</g>
</svg>
