<svg
        id="vectroized"
        xmlns="http://www.w3.org/2000/svg"
        viewBox="0 0 226 401"
        fill="none"
      >
        <!--  png Image -->
        <image
          id="pngImage"
          width="226"
          height="401"
          transform="translate(0 1.3)"
          href="assets/images/colored.png"
        />
        <path
          id="path1"
          fill="#060709"
          fill-opacity=".99"
          stroke="#000"
          d="M157.385 111.977c-11.88.154-5.313-18.332-18.321-18.284-12.999.039-8.187-17.042-11.639-24.952-3.462-7.9-3.211-19.592-14.397-22.2-11.185-2.608-19.247 4.494-21.282 15.33-2.034 10.835-3.52 20.717-.896 31.822-8.592-.731-8.718 6.717-10.29 12.828-1.571 6.11.522 14.954-.395 20.776-.925 5.822 2.401 10.393 2.006 17.398-.395 7.006 1.37 14.666-3.78 19.323-5.14 4.667 1.91 11.269-3.211 16.042-5.11 4.782-2.864 11.21-6.509 16.599 9.923 6.592 2.054 10.797-3.134 19.006-5.178 8.218 3.732 16.33 11.793 18.543 8.052 2.223 20.183 2.425 20.916 12.808.742 10.374 5.525 17.63 5.149 27.58-.386 9.96 7.116 17.514 6.74 26.954-.376 9.44-2.767 19.14-5.862 27.829-3.086 8.7-9.045 19.997 6.827 16.436-2.662 9.027 7.068 14.339 13.21 7.41 6.133-6.938-2.815-14.617 1.929-22.133 4.735-7.525 1.726-10.508-2.285-17.35-4.012-6.842.665-16.407.646-23.74-.01-7.323 3.433-14.463 3.857-22.133.424-7.669-.318-18.062 0-25.982 10.588-5.071 13.992-3.021 25.37-5.475 11.369-2.464 8.91-10.634 4.301-19.323-4.609-8.69-10.125-14.098-4.59-22.345 5.535-8.247-2.825-19.111 2.131-27.704 4.966-8.584 5.082-18.438 6.547-28.109 1.466-9.671-2.179-17.937-4.831-26.954Zm-5.785 26.944c.115 12.472-3.047 24.116-6.75 35.605-2.671-4.465-4.735-11.749-10.607-13.472 3.452-5.783-3.482-11.682-2.874-17.34.617-5.668 4.918-11.471 5.766-17.303 6.355 3.128 6.943 12.087 14.465 12.51Z"
        />
        <path
          id="path2"
          fill="#060709"
          fill-opacity=".02"
          stroke="#000"
          d="M151.597 138.924c-7.522-.423-8.11-9.382-14.464-12.51-.849 5.832-5.15 11.634-5.767 17.302-.607 5.659 6.326 11.557 2.874 17.341 5.872 1.722 7.936 9.007 10.607 13.472 3.703-11.49 6.866-23.134 6.75-35.605Z"
        />
      </svg>